<svg width="159" height="42" viewBox="0 0 159 42" fill="none" xmlns="http://www.w3.org/2000/svg">
<g clip-path="url(#clip0_2_800)">
<g clip-path="url(#clip1_2_800)">
<path fill-rule="evenodd" clip-rule="evenodd" d="M25.2405 37.3023C24.9738 37.9265 24.7996 38.7736 25.1944 39.3034C26.0635 40.4704 31.5324 37.4764 32.297 36.4464C29.234 37.8584 29.1003 36.5971 30.153 35.258C30.1975 35.2012 30.2447 35.1451 30.2943 35.089C29.9189 35.2741 29.5365 35.4595 29.1443 35.6485C27.7883 36.2341 26.5053 36.7949 25.2405 37.3023Z" fill="#18354A"/>
<path fill-rule="evenodd" clip-rule="evenodd" d="M12.8737 22.1906C14.0966 20.29 16.579 17.355 18.8622 15.2387C16.2982 16.3789 14.0956 16.8681 11.6458 17.3924C10.575 17.6217 9.45795 17.8789 8.33774 18.0042C7.73576 18.7601 7.24007 19.4507 6.69181 20.2313C6.0336 21.1688 5.51208 22.0996 4.92957 23.0581C5.21127 23.0895 5.49398 23.1086 5.77499 23.1187C7.37014 23.1757 8.92688 23.0364 10.4459 22.742C11.2598 22.5769 12.0691 22.3927 12.8737 22.1906Z" fill="#18354A"/>
<path fill-rule="evenodd" clip-rule="evenodd" d="M23.007 31.1493C24.003 29.5073 26.3306 26.7865 28.5781 24.7133C28.2088 24.8883 27.8577 25.0539 27.5307 25.2091C24.3125 26.7641 20.5421 28.1949 16.8661 29.2503C15.7801 30.7053 15.0779 32.0162 14.4951 33.5855C16.3868 33.2585 18.3183 32.7302 20.05 32.1691C21.0676 31.837 22.0408 31.5058 23.007 31.1493Z" fill="#18354A"/>
<path fill-rule="evenodd" clip-rule="evenodd" d="M13.7503 39.1997C14.617 39.9762 15.4801 40.4704 16.643 40.7148C18.533 41.1122 20.5516 41.1144 22.3305 40.863C20.9929 40.992 19.4487 39.8617 19.6665 38.5888C19.4421 38.6396 19.216 38.6875 18.9878 38.7329C17.3326 39.0609 15.4984 39.253 13.7503 39.1997Z" fill="#18354A"/>
<path fill-rule="evenodd" clip-rule="evenodd" d="M7.37374 34.2213C6.96769 33.4531 7.39409 31.1532 8.04321 30.3025C7.73417 30.3128 7.42531 30.3152 7.11828 30.3087C5.78086 30.2806 4.22904 30.0769 2.83397 29.4098C2.75713 29.9766 2.92948 31.123 3.1735 31.701C3.48275 32.0871 3.91539 32.6681 5.06866 33.338C5.78433 33.7533 6.56371 34.0362 7.37374 34.2213Z" fill="#18354A"/>
<path fill-rule="evenodd" clip-rule="evenodd" d="M25.879 3.09863C25.1684 3.18581 22.4174 4.99452 21.565 5.61173C20.243 6.56863 18.5139 7.8409 17.2864 9.00116C19.7793 7.70582 24.9299 4.54951 25.879 3.09863Z" fill="#18354A"/>
<path fill-rule="evenodd" clip-rule="evenodd" d="M36.3813 11.2663C34.9478 11.5388 33.0221 12.9896 32.2847 13.5161C31.4574 14.1069 29.132 15.8317 28.42 16.5577C31.2019 14.8959 35.3219 12.1898 36.3813 11.2663Z" fill="#18354A"/>
<path fill-rule="evenodd" clip-rule="evenodd" d="M39.3597 22.8112L39.35 22.5983C38.4915 23.1534 37.9355 23.5585 37.0808 24.1954C36.7329 24.4548 36.2084 24.8172 35.7167 25.1864C37.0335 24.3835 38.2912 23.572 39.3597 22.8112Z" fill="#18354A"/>
<path fill-rule="evenodd" clip-rule="evenodd" d="M2.83383 29.4097C5.7757 30.8163 9.7304 30.3243 12.8596 29.6438C17.6057 28.6122 22.9214 26.7481 27.2419 24.6606C30.619 23.0579 36.5411 20.3508 38.9431 17.5339C38.4997 15.1911 37.6447 13.2492 36.3812 11.2663C35.0263 12.4471 28.6674 16.543 26.5007 17.6429C21.4204 20.2214 16.0405 22.2564 10.4459 23.391C8.92684 23.6854 7.3701 23.8247 5.77494 23.7677C4.59635 23.7254 3.38726 23.5251 2.35203 22.9236C1.17955 22.2421 0.786806 21.1299 0.821729 18.7239C0.0140715 21.2695 0.197711 27.7558 2.83383 29.4097Z" fill="#18354A"/>
<path fill-rule="evenodd" clip-rule="evenodd" d="M18.988 38.7329C22.4614 38.0448 25.4767 36.6987 28.9796 35.1855C31.1124 34.1583 32.959 33.2304 34.9425 31.9298C35.5909 31.5044 37.0767 30.517 37.5611 29.8165C38.4145 28.1467 39.3641 24.5856 39.36 22.8112C35.0289 25.8953 27.5871 29.8109 25.7082 30.6243C23.7944 31.4528 21.9868 32.0941 20.012 32.7387C17.7071 33.4856 15.0481 34.174 12.6 34.4074C10.1346 34.6424 7.29394 34.6295 5.06868 33.338C3.91538 32.6681 3.48277 32.0871 3.17352 31.7011C3.7312 33.1437 5.83551 35.5617 7.39389 36.7542C8.3554 37.4897 9.4518 38.3119 10.623 38.7064C11.2938 38.9326 11.8689 39.0467 12.433 39.1092C14.5506 39.3426 16.9104 39.1448 18.988 38.7329Z" fill="#18354A"/>
<path fill-rule="evenodd" clip-rule="evenodd" d="M11.3404 16.7815C13.8092 16.2532 16.0269 15.7605 18.6165 14.6013C21.3546 13.3269 28.9009 9.64275 31.4424 5.94868C29.5079 4.49299 27.7118 3.78067 25.8792 3.09863C24.8212 4.71578 18.5431 8.45199 16.544 9.36824C14.0662 10.5042 11.4502 11.4153 9.18426 11.6724C3.95323 12.3383 5.88884 7.5357 9.64128 5.90598C7.78471 6.31926 5.28863 7.74704 3.76273 9.81271C1.76746 12.5137 1.26295 16.0373 4.31879 17.0932C6.59397 17.8794 9.07103 17.2674 11.3404 16.7815Z" fill="#18354A"/>
<path fill-rule="evenodd" clip-rule="evenodd" d="M9.08375 3.92511C8.85601 3.83659 8.69312 3.71116 8.61629 3.53574L8.55634 3.39974L8.70173 3.3006C8.97766 3.11093 9.23725 3.08109 9.61574 3.03734L16.3719 2.2509C16.6542 2.21761 16.9602 2.17076 17.2498 2.10144C17.5266 2.0352 17.7839 1.94894 17.9808 1.83538L20.1346 0.592501C20.4503 0.410153 20.8031 0.300016 21.1812 0.263572C21.5501 0.227889 21.9422 0.26243 22.3462 0.368844L22.4971 0.408736L22.4781 0.552716C22.4543 0.73316 22.3808 0.957307 22.243 1.17138C22.13 1.34719 21.9732 1.51723 21.7649 1.65258L19.2535 3.28803C18.7573 3.61124 18.6938 3.78521 18.5784 4.10167C18.5466 4.189 18.5117 4.28516 18.4735 4.37785C18.3781 4.60985 18.271 4.86468 18.1661 5.11399C17.8181 5.94083 17.4893 6.72248 17.1942 7.65674L17.1288 7.86427L16.9069 7.81712C16.8934 7.81422 16.8676 7.81131 16.8407 7.80797C16.5916 7.7788 16.2412 7.7377 16.1789 7.08L16.0529 5.75561C16.0507 5.73318 16.0496 5.69439 16.0481 5.65386L16.0482 5.65298C16.0457 5.57385 16.0425 5.47936 16.0145 5.41985C15.9917 5.37103 15.9074 5.35882 15.6567 5.47252C15.0774 5.73498 14.6515 5.93001 14.2106 6.13161C13.4448 6.46254 10.9191 7.01532 9.19354 6.97561C9.37848 6.91095 9.55563 6.84529 9.72275 6.77953L8.97734 6.45377L9.37574 6.2687L10.1541 5.9296L9.01134 5.45129C8.85125 5.37166 8.95492 5.26253 9.09198 5.21665L10.4227 4.74136C10.4719 4.72386 10.5288 4.71925 10.5773 4.72452L12.9982 4.92734L14.0574 4.38709C14.0237 4.36772 13.8568 4.28159 13.7949 4.26973C13.4358 4.20098 10.2659 4.11633 9.83333 4.08659C9.54109 4.05392 9.28544 4.00349 9.08375 3.92511Z" fill="#18354A"/>
<path d="M154.273 10.0846C155.176 10.4249 155.976 10.9354 156.674 11.6154C158.072 12.9766 158.771 15.1468 158.771 18.1257V28.2983H154.478V18.3373C154.478 17.4977 154.389 16.7617 154.213 16.1301C154.039 15.5077 153.78 14.9849 153.435 14.5622C153.094 14.1449 152.673 13.8314 152.173 13.6223C151.666 13.4107 151.074 13.3047 150.398 13.3047C149.676 13.3047 149.034 13.4294 148.473 13.6779C147.914 13.9254 147.431 14.297 147.024 14.7923C146.615 15.2914 146.307 15.8877 146.101 16.5799C145.893 17.2786 145.788 18.0762 145.788 18.9724V28.2983H141.53V9.78751H145.257L145.63 11.8696C146.27 11.1638 147.017 10.6206 147.872 10.2398C148.867 9.79713 150.002 9.57586 151.279 9.57586C152.376 9.57586 153.374 9.7455 154.273 10.0846Z" fill="#18354A"/>
<path d="M126.864 28.2172C126.043 28.0219 125.274 27.7277 124.556 27.3354C123.835 26.9422 123.198 26.4679 122.643 25.9129C122.088 25.3579 121.614 24.7203 121.22 24.0005C120.828 23.2824 120.534 22.5093 120.339 21.6822C120.144 20.8567 120.046 19.9768 120.046 19.0429C120.046 18.1201 120.144 17.2487 120.339 16.4292C120.534 15.6086 120.828 14.8389 121.22 14.1206C121.613 13.4022 122.087 12.7632 122.643 12.2046C123.198 11.6458 123.836 11.1671 124.554 10.7688C125.271 10.3712 126.041 10.0727 126.863 9.87396C127.685 9.67543 128.557 9.57586 129.478 9.57586C130.399 9.57586 131.271 9.67543 132.092 9.87396C132.914 10.0727 133.684 10.3712 134.402 10.7688C135.12 11.1673 135.757 11.6458 136.312 12.2046C136.868 12.7632 137.342 13.4022 137.735 14.1206C138.127 14.8389 138.421 15.6086 138.617 16.4292C138.812 17.2487 138.909 18.1201 138.909 19.0429C138.909 19.9768 138.812 20.8569 138.617 21.6822C138.421 22.5095 138.127 23.2824 137.735 24.0005C137.342 24.7188 136.868 25.3562 136.312 25.912C135.756 26.4689 135.118 26.9432 134.4 27.3354C132.967 28.1182 131.326 28.5099 129.478 28.5099C128.555 28.5099 127.683 28.4123 126.864 28.2172ZM131.555 24.4167C132.167 24.1511 132.706 23.7514 133.172 23.2176C134.111 22.1432 134.581 20.7515 134.581 19.0429C134.581 18.1848 134.463 17.4074 134.227 16.7113C133.992 16.0184 133.641 15.4039 133.172 14.8682C132.706 14.3346 132.167 13.9346 131.555 13.6691C130.94 13.4028 130.248 13.2695 129.478 13.2695C128.708 13.2695 128.017 13.4028 127.406 13.6693C126.796 13.9348 126.261 14.3346 125.801 14.8674C125.338 15.4035 124.991 16.018 124.759 16.7103C124.526 17.4063 124.41 18.1838 124.41 19.0429C124.41 19.9019 124.526 20.6795 124.759 21.3754C124.991 22.0675 125.338 22.6824 125.801 23.2183C126.261 23.7515 126.796 24.1509 127.406 24.4167C128.017 24.683 128.708 24.8164 129.478 24.8164C130.248 24.8164 130.94 24.683 131.555 24.4167Z" fill="#18354A"/>
<path d="M113.552 10.0733C114.388 10.4056 115.128 10.9036 115.773 11.5668C116.421 12.2333 116.907 13.0972 117.229 14.1582C117.547 15.2073 117.707 16.4476 117.707 17.8786V28.2983H113.449V17.9141C113.449 17.1442 113.372 16.4692 113.218 15.8894C113.067 15.3188 112.842 14.8395 112.543 14.4521C111.954 13.6874 111.072 13.3047 109.898 13.3047C109.27 13.3047 108.711 13.4143 108.221 13.6331C107.732 13.8513 107.307 14.179 106.948 14.616C106.218 15.5029 105.853 16.7319 105.853 18.3021V28.2983H101.56V17.9141C101.56 17.1334 101.481 16.4513 101.325 15.8682C101.172 15.2957 100.942 14.8183 100.639 14.437C100.339 14.0608 99.9691 13.7785 99.531 13.5907C99.0867 13.4001 98.5672 13.3047 97.9737 13.3047C97.359 13.3047 96.8096 13.418 96.3264 13.6444C95.8445 13.8703 95.4225 14.211 95.0617 14.6664C94.6978 15.1258 94.424 15.6651 94.2411 16.2836C94.0566 16.9085 93.9642 17.6167 93.9642 18.4078V28.2983H89.7062V9.78751H93.4331L93.8037 11.8574C94.4026 11.1698 95.0898 10.6373 95.8647 10.2601C96.7762 9.81678 97.8078 9.58876 98.9599 9.57684L98.9615 9.57586C99.6121 9.57586 100.227 9.64597 100.804 9.78578C101.384 9.92597 101.923 10.1364 102.422 10.4162C102.926 10.6985 103.371 11.055 103.758 11.4848C104.062 11.8218 104.329 12.2046 104.56 12.6331C104.835 12.2319 105.144 11.8672 105.483 11.5395C105.914 11.1239 106.397 10.7669 106.932 10.4692C107.468 10.1707 108.058 9.94675 108.701 9.79808C109.342 9.65001 110.035 9.57586 110.78 9.57586C111.794 9.57586 112.719 9.74185 113.552 10.0733Z" fill="#18354A"/>
<path d="M86.3461 24.5341H87.3108V28.2983H85.076C84.4689 28.2983 83.9422 28.2332 83.4969 28.1034C83.038 27.9695 82.6661 27.7668 82.382 27.4953C82.0981 27.2243 81.8853 26.8925 81.744 26.5002C81.668 26.2896 81.6128 26.0626 81.5784 25.8188C80.9473 26.6331 80.2043 27.2632 79.3496 27.7084C78.3233 28.2426 77.1393 28.5099 75.7977 28.5099C74.7673 28.5099 73.8351 28.389 73.0015 28.1473C72.1629 27.9045 71.4265 27.539 70.7929 27.0516C70.1529 26.5594 69.6723 25.9734 69.3512 25.2944C69.0311 24.6169 68.8709 23.8499 68.8709 22.994C68.8709 22.0331 69.0425 21.18 69.3859 20.4355C69.73 19.688 70.2469 19.0529 70.9357 18.5301C71.6182 18.0123 72.453 17.6244 73.4399 17.3672C74.4182 17.112 75.5454 16.9845 76.8208 16.9845H81.1479V16.1149C81.1479 15.6396 81.0665 15.2183 80.9038 14.8518C80.7414 14.4873 80.4976 14.1719 80.1727 13.9067C79.8431 13.6377 79.4483 13.4351 78.9894 13.2995C78.5233 13.1619 77.9884 13.0931 77.3853 13.0931C76.8508 13.0931 76.3654 13.1509 75.9295 13.266C75.4981 13.38 75.113 13.5508 74.7752 13.7777C74.4415 14.0022 74.175 14.263 73.9767 14.5589C73.7802 14.8524 73.649 15.1842 73.584 15.5536L73.5512 15.739H69.3765L69.402 15.4923C69.4992 14.5555 69.7556 13.7223 70.1706 12.9928C70.5863 12.262 71.1612 11.6367 71.8945 11.1172C72.6227 10.6015 73.4607 10.215 74.4081 9.95852C75.3505 9.70353 76.402 9.57586 77.5616 9.57586C78.7942 9.57586 79.8886 9.72049 80.8448 10.0089C81.8096 10.3001 82.6337 10.7386 83.3165 11.3234C84.0028 11.9117 84.5175 12.6286 84.8603 13.473C85.2003 14.3117 85.3706 15.2747 85.3706 16.3617V23.4881C85.3706 23.8524 85.45 24.1192 85.6093 24.2874C85.7645 24.4517 86.0105 24.5341 86.3461 24.5341ZM81.1485 20.6656L81.1479 20.2547H76.6445C76.0743 20.2547 75.5719 20.3098 75.1376 20.4197C74.7121 20.5274 74.352 20.6876 74.0584 20.8996C73.7723 21.1063 73.5578 21.3614 73.4156 21.6641C73.2715 21.9711 73.1992 22.3323 73.1992 22.7471C73.1992 23.1022 73.2667 23.4199 73.4011 23.6998C73.5367 23.9805 73.7404 24.2278 74.0123 24.4411C74.2902 24.6581 74.6188 24.8216 74.9991 24.9308C75.3852 25.0429 75.828 25.0986 76.3269 25.0986C77.0898 25.0986 77.767 24.9967 78.3577 24.7933C78.9415 24.5923 79.442 24.2915 79.8589 23.8914C80.2768 23.4904 80.5931 23.0221 80.8073 22.4875C81.023 21.9491 81.1372 21.3419 81.1485 20.6656Z" fill="#18354A"/>
<path d="M51.2037 13.3629V9.78745H66.4333V12.808L56.5993 24.4989H66.8922V28.2982H50.7805V25.2776L60.6145 13.5868H51.2037V13.3629Z" fill="#18354A"/>
<path d="M116.637 33.7334V40.6653H117.707V33.7334H116.637Z" fill="#18354A"/>
<path d="M111.116 36.7687C110.909 37.1614 110.805 37.6187 110.805 38.14C110.805 38.6553 110.912 39.1073 111.126 39.4968C111.341 39.8863 111.645 40.1881 112.038 40.4029C112.43 40.6173 112.891 40.7246 113.419 40.7246C114.026 40.7246 114.533 40.5596 114.939 40.2297C115.345 39.8992 115.594 39.4769 115.687 38.9622H114.617C114.545 39.2457 114.396 39.4656 114.171 39.6204C113.947 39.7756 113.67 39.8532 113.339 39.8532C112.924 39.8532 112.59 39.7245 112.339 39.4671C112.089 39.2095 111.95 38.8597 111.924 38.4172V38.3579H115.746C115.766 38.2192 115.776 38.0842 115.776 37.952C115.769 37.4635 115.659 37.0377 115.444 36.6747C115.23 36.3114 114.936 36.0307 114.563 35.8326C114.19 35.6349 113.759 35.5356 113.27 35.5356C112.789 35.5356 112.361 35.6428 111.988 35.8576C111.615 36.072 111.325 36.3757 111.116 36.7687ZM114.686 37.5758H111.963C112.003 37.2191 112.15 36.9337 112.404 36.7192C112.658 36.5044 112.96 36.3972 113.31 36.3972C113.686 36.3972 113.998 36.5013 114.246 36.7091C114.493 36.9169 114.64 37.2058 114.686 37.5758Z" fill="#18354A"/>
<path d="M105.596 35.5952L107.467 40.6653H108.775L110.646 35.5952H109.517L108.141 39.5163L106.745 35.5952H105.596Z" fill="#18354A"/>
<path d="M105.675 39.7343H105.467C105.243 39.7343 105.13 39.6157 105.13 39.3779V37.3777C105.13 36.7835 104.946 36.3281 104.576 36.0112C104.206 35.6942 103.681 35.5356 103.001 35.5356C102.361 35.5356 101.842 35.6759 101.447 35.9566C101.05 36.237 100.826 36.6318 100.773 37.1399H101.823C101.862 36.9154 101.983 36.7356 102.184 36.6C102.386 36.465 102.641 36.3972 102.952 36.3972C103.301 36.3972 103.576 36.4782 103.774 36.6397C103.972 36.8015 104.071 37.0245 104.071 37.308V37.6152H102.793C102.087 37.6152 101.549 37.7555 101.179 38.0359C100.81 38.3166 100.624 38.7178 100.624 39.2391C100.624 39.7015 100.796 40.0645 101.139 40.3285C101.483 40.5927 101.938 40.7246 102.506 40.7246C103.239 40.7246 103.797 40.4344 104.179 39.8532C104.179 40.1175 104.252 40.3187 104.398 40.4571C104.543 40.5959 104.78 40.6653 105.11 40.6653H105.675V39.7343ZM104.071 38.4074V38.5856C104.064 38.9818 103.937 39.2987 103.689 39.5365C103.442 39.774 103.097 39.8929 102.655 39.8929C102.364 39.8929 102.135 39.827 101.966 39.6948C101.798 39.5627 101.714 39.3877 101.714 39.17C101.714 38.9193 101.803 38.7295 101.981 38.6008C102.159 38.4718 102.414 38.4074 102.744 38.4074H104.071Z" fill="#18354A"/>
<path d="M100.337 35.5952H100.1C99.7105 35.5952 99.3998 35.663 99.169 35.7979C98.9381 35.9332 98.7498 36.12 98.6047 36.3578L98.4855 35.5952H97.5353V40.6653H98.6047V38.1201C98.6047 37.678 98.7038 37.3131 98.9015 37.0261C99.0999 36.7387 99.42 36.5952 99.8622 36.5952H100.337V35.5952Z" fill="#18354A"/>
<path d="M94.2811 36.5359V39.2886C94.2811 39.7573 94.3918 40.1039 94.6129 40.3284C94.834 40.553 95.1856 40.6653 95.6675 40.6653H96.6973V39.7245H95.8855C95.694 39.7245 95.5584 39.6832 95.4792 39.6005C95.4004 39.5182 95.3607 39.3779 95.3607 39.1798V36.5359H96.5787V35.5952H95.3607V34.1791H94.2811V35.5952H93.3996V36.5359H94.2811Z" fill="#18354A"/>
<path d="M86.7564 38.9915H85.7263C85.7396 39.533 85.9559 39.9569 86.3751 40.2641C86.7942 40.5713 87.3436 40.7246 88.0236 40.7246C88.4263 40.7246 88.7897 40.6602 89.1129 40.5316C89.4365 40.4026 89.6907 40.2181 89.8755 39.9771C90.0607 39.7362 90.1527 39.457 90.1527 39.1401C90.1527 38.7837 90.0638 38.5014 89.8856 38.2936C89.7074 38.0854 89.4696 37.9337 89.1725 37.8382C88.8754 37.7423 88.509 37.6713 88.0731 37.625C87.7498 37.5855 87.5152 37.5509 87.3701 37.5212C87.225 37.4916 87.1042 37.4386 87.0087 37.3626C86.9131 37.2869 86.8652 37.173 86.8652 37.021C86.8652 36.8166 86.9611 36.6545 87.1525 36.5359C87.3436 36.417 87.5947 36.3578 87.905 36.3578C88.2153 36.3578 88.4727 36.4319 88.6774 36.5804C88.8821 36.729 88.9975 36.9188 89.024 37.1497H90.0638C90.031 36.635 89.8146 36.2354 89.4151 35.9515C89.0158 35.6677 88.496 35.5258 87.8555 35.5258C87.466 35.5258 87.1178 35.5917 86.8106 35.7238C86.5037 35.856 86.2628 36.0424 86.0877 36.2833C85.913 36.5243 85.8253 36.7999 85.8253 37.1103C85.8253 37.4402 85.913 37.7026 86.0877 37.8975C86.2628 38.0924 86.4936 38.2343 86.781 38.3232C87.0683 38.4122 87.4329 38.4834 87.8753 38.5361C88.1986 38.5759 88.438 38.6137 88.5935 38.6503C88.7483 38.6862 88.8723 38.7474 88.9647 38.8332C89.0571 38.919 89.1031 39.0477 89.1031 39.2196C89.1031 39.4239 89.0025 39.5876 88.8013 39.7097C88.5998 39.8317 88.3374 39.8929 88.0138 39.8929C87.6508 39.8929 87.3553 39.8087 87.1276 39.6403C86.8999 39.4719 86.7759 39.2558 86.7564 38.9915Z" fill="#18354A"/>
<path d="M81.7361 38.9915H80.7061C80.7193 39.533 80.9357 39.9569 81.3548 40.2641C81.7739 40.5713 82.3233 40.7246 83.0033 40.7246C83.4061 40.7246 83.7694 40.6602 84.0927 40.5316C84.4162 40.4026 84.6704 40.2181 84.8553 39.9771C85.0404 39.7362 85.1325 39.457 85.1325 39.1401C85.1325 38.7837 85.0435 38.5014 84.8653 38.2936C84.6872 38.0854 84.4494 37.9337 84.1523 37.8382C83.8552 37.7423 83.4887 37.6713 83.0528 37.625C82.7296 37.5855 82.4949 37.5509 82.3501 37.5212C82.2048 37.4916 82.0843 37.4386 81.9884 37.3626C81.8928 37.2869 81.8449 37.173 81.8449 37.021C81.8449 36.8166 81.9408 36.6545 82.1322 36.5359C82.3233 36.417 82.5744 36.3578 82.8847 36.3578C83.1951 36.3578 83.4524 36.4319 83.6571 36.5804C83.8618 36.729 83.9772 36.9188 84.0037 37.1497H85.0435C85.0107 36.635 84.7944 36.2354 84.3948 35.9515C83.9955 35.6677 83.4758 35.5258 82.8352 35.5258C82.4457 35.5258 82.0975 35.5917 81.7903 35.7238C81.4835 35.856 81.2425 36.0424 81.0675 36.2833C80.8928 36.5243 80.8051 36.7999 80.8051 37.1103C80.8051 37.4402 80.8928 37.7026 81.0675 37.8975C81.2425 38.0924 81.4734 38.2343 81.7607 38.3232C82.048 38.4122 82.4126 38.4834 82.8551 38.5361C83.1784 38.5759 83.4177 38.6137 83.5732 38.6503C83.7281 38.6862 83.852 38.7474 83.9444 38.8332C84.0368 38.919 84.0829 39.0477 84.0829 39.2196C84.0829 39.4239 83.9823 39.5876 83.7811 39.7097C83.5795 39.8317 83.3171 39.8929 82.9935 39.8929C82.6305 39.8929 82.335 39.8087 82.1073 39.6403C81.8796 39.4719 81.7557 39.2558 81.7361 38.9915Z" fill="#18354A"/>
<path d="M75.393 36.7687C75.1852 37.1614 75.0811 37.6187 75.0811 38.14C75.0811 38.6553 75.1883 39.1073 75.4031 39.4968C75.6176 39.8863 75.9213 40.1881 76.3143 40.4029C76.7069 40.6173 77.1674 40.7246 77.6957 40.7246C78.3028 40.7246 78.8096 40.5596 79.2155 40.2297C79.6217 39.8992 79.8709 39.4769 79.9633 38.9622H78.8938C78.8209 39.2457 78.6727 39.4656 78.4482 39.6204C78.2236 39.7756 77.9464 39.8532 77.6162 39.8532C77.2005 39.8532 76.8671 39.7245 76.6161 39.4671C76.3654 39.2095 76.2266 38.8597 76.2001 38.4172V38.3579H80.0226C80.0424 38.2192 80.0522 38.0842 80.0522 37.952C80.0459 37.4635 79.9352 37.0377 79.7207 36.6747C79.506 36.3114 79.2123 36.0307 78.8392 35.8326C78.4665 35.6349 78.0356 35.5356 77.5471 35.5356C77.0649 35.5356 76.6375 35.6428 76.2648 35.8576C75.8917 36.072 75.6012 36.3757 75.393 36.7687ZM78.9632 37.5758H76.2398C76.2793 37.2191 76.4262 36.9337 76.6804 36.7192C76.9346 36.5044 77.2368 36.3972 77.5868 36.3972C77.9628 36.3972 78.2747 36.5013 78.5223 36.7091C78.7702 36.9169 78.9168 37.2058 78.9632 37.5758Z" fill="#18354A"/>
<path d="M73.7297 36.0903C73.35 35.7207 72.8599 35.5356 72.2591 35.5356C71.5596 35.5356 71.0181 35.7768 70.6352 36.2587L70.5163 35.5952H69.5853V40.6653H70.6551V38.1104C70.6551 37.5953 70.7752 37.191 71.0165 36.8974C71.2574 36.6034 71.5892 36.4568 72.0115 36.4568C72.4076 36.4568 72.7082 36.5823 72.9126 36.833C73.1173 37.0838 73.2198 37.4503 73.2198 37.9322V40.6653H74.299V37.8726C74.299 37.0541 74.1091 36.4599 73.7297 36.0903Z" fill="#18354A"/>
<path d="M67.4662 35.5952V40.6653H68.5357V35.5952H67.4662Z" fill="#18354A"/>
<path d="M68.4663 33.7483C68.3408 33.6262 68.1856 33.565 68.0008 33.565C67.816 33.565 67.6608 33.6262 67.5353 33.7483C67.4101 33.8703 67.3473 34.0239 67.3473 34.2087C67.3473 34.3935 67.4101 34.5471 67.5353 34.6692C67.6608 34.7912 67.816 34.8524 68.0008 34.8524C68.1856 34.8524 68.3408 34.7912 68.4663 34.6692C68.5915 34.5471 68.6542 34.3935 68.6542 34.2087C68.6542 34.0239 68.5915 33.8703 68.4663 33.7483Z" fill="#18354A"/>
<path d="M63.1981 38.9915H62.1683C62.1813 39.533 62.3976 39.9569 62.8168 40.2641C63.2362 40.5713 63.7856 40.7246 64.4656 40.7246C64.8683 40.7246 65.2313 40.6602 65.5549 40.5316C65.8785 40.4026 66.1327 40.2181 66.3172 39.9771C66.5023 39.7362 66.5948 39.457 66.5948 39.1401C66.5948 38.7837 66.5055 38.5014 66.3273 38.2936C66.1491 38.0854 65.9113 37.9337 65.6142 37.8382C65.3174 37.7423 64.951 37.6713 64.5151 37.625C64.1915 37.5855 63.9572 37.5509 63.8121 37.5212C63.6667 37.4916 63.5462 37.4386 63.4507 37.3626C63.3548 37.2869 63.3069 37.173 63.3069 37.021C63.3069 36.8166 63.4027 36.6545 63.5942 36.5359C63.7856 36.417 64.0364 36.3578 64.3467 36.3578C64.6573 36.3578 64.9147 36.4319 65.1191 36.5804C65.3238 36.729 65.4395 36.9188 65.4657 37.1497H66.5055C66.4727 36.635 66.2564 36.2354 65.8571 35.9515C65.4575 35.6677 64.9377 35.5258 64.2972 35.5258C63.9077 35.5258 63.5595 35.5917 63.2526 35.7238C62.9454 35.856 62.7045 36.0424 62.5298 36.2833C62.3547 36.5243 62.2674 36.7999 62.2674 37.1103C62.2674 37.4402 62.3547 37.7026 62.5298 37.8975C62.7045 38.0924 62.9357 38.2343 63.2227 38.3232C63.51 38.4122 63.8746 38.4834 64.317 38.5361C64.6406 38.5759 64.8797 38.6137 65.0352 38.6503C65.19 38.6862 65.314 38.7474 65.4064 38.8332C65.4988 38.919 65.5448 39.0477 65.5448 39.2196C65.5448 39.4239 65.4442 39.5876 65.243 39.7097C65.0415 39.8317 64.7791 39.8929 64.4558 39.8929C64.0925 39.8929 63.7973 39.8087 63.5693 39.6403C63.3419 39.4719 63.2179 39.2558 63.1981 38.9915Z" fill="#18354A"/>
<path d="M61.2966 35.5952H60.2274V38.1103C60.2274 38.6317 60.1117 39.0426 59.8808 39.3432C59.6497 39.6434 59.3295 39.7939 58.9202 39.7939C58.5307 39.7939 58.2367 39.6652 58.0387 39.4075C57.8406 39.1502 57.7416 38.7736 57.7416 38.2788V35.5952H56.6721V38.3876C56.6721 39.2063 56.8573 39.8002 57.2269 40.1701C57.5965 40.5398 58.0784 40.7246 58.6726 40.7246C59.333 40.7246 59.8544 40.4902 60.2372 40.0216L60.3561 40.6653H61.2966V35.5952Z" fill="#18354A"/>
<path d="M54.7316 35.8475C54.3683 35.6396 53.9557 35.5355 53.4937 35.5355C52.8005 35.5355 52.2524 35.8065 51.8499 36.3477V33.7334H50.7805V40.6653H51.7112L51.8401 39.9323C52.0117 40.1767 52.2363 40.3698 52.5132 40.5117C52.7907 40.6536 53.1171 40.7246 53.4937 40.7246C53.9557 40.7246 54.3683 40.6158 54.7316 40.3978C55.0946 40.1802 55.3784 39.8746 55.5831 39.4819C55.7878 39.089 55.89 38.6383 55.89 38.1302C55.89 37.5953 55.7878 37.1333 55.5831 36.7438C55.3784 36.3543 55.0946 36.0556 54.7316 35.8475ZM54.3897 39.3533C54.116 39.6668 53.7577 39.8235 53.3155 39.8235C52.873 39.8235 52.5163 39.6652 52.246 39.3482C51.9754 39.0313 51.8401 38.6219 51.8401 38.1201C51.8401 37.625 51.9754 37.2225 52.246 36.9122C52.5163 36.6019 52.873 36.4467 53.3155 36.4467C53.7577 36.4467 54.116 36.6034 54.3897 36.9169C54.6638 37.2307 54.8007 37.6351 54.8007 38.1302C54.8007 38.632 54.6638 39.0395 54.3897 39.3533Z" fill="#18354A"/>
</g>
</g>
<defs>
<clipPath id="clip0_2_800">
<rect width="159" height="41" fill="white" transform="translate(0 0.25)"/>
</clipPath>
<clipPath id="clip1_2_800">
<rect width="158.954" height="41" fill="white" transform="translate(0.0230713 0.25)"/>
</clipPath>
</defs>
</svg>
